<?xml version="1.0" encoding="utf-8" standalone="no"?>
<!DOCTYPE svg PUBLIC "-//W3C//DTD SVG 1.1//EN"
  "http://www.w3.org/Graphics/SVG/1.1/DTD/svg11.dtd">
<svg xmlns:xlink="http://www.w3.org/1999/xlink" width="495.794359pt" height="207.028304pt" viewBox="0 0 495.794359 207.028304" xmlns="http://www.w3.org/2000/svg" version="1.1">
 <metadata>
  <rdf:RDF xmlns:dc="http://purl.org/dc/elements/1.1/" xmlns:cc="http://creativecommons.org/ns#" xmlns:rdf="http://www.w3.org/1999/02/22-rdf-syntax-ns#">
   <cc:Work>
    <dc:type rdf:resource="http://purl.org/dc/dcmitype/StillImage"/>
    <dc:date>2026-09-23T16:12:20.029550</dc:date>
    <dc:format>image/svg+xml</dc:format>
    <dc:creator>
     <cc:Agent>
      <dc:title>Matplotlib v3.11.2, https://matplotlib.org/</dc:title>
     </cc:Agent>
    </dc:creator>
   </cc:Work>
  </rdf:RDF>
 </metadata>
 <defs>
  <style type="text/css">*{stroke-linejoin: round; stroke-linecap: butt}</style>
 </defs>
 <g id="figure_1">
  <g id="patch_1">
   <path d="M 0 207.028304
L 495.794359 207.028304
L 495.794359 0
L 0 0
z
" style="fill: #ffffff"/>
  </g>
  <g id="axes_1">
   <g id="patch_2">
    <path d="M 40.718359 184.32764
L 488.594359 184.32764
L 488.594359 32.37164
L 40.718359 32.37164
z
" style="fill: #ffffff"/>
   </g>
   <g id="matplotlib.axis_1">
    <g id="xtick_1">
     <g id="line2d_1">
      <defs>
       <path id="mb90554e9ce" d="M 0 0
L 0 3.5
" style="stroke: #000000; stroke-width: 0.8"/>
      </defs>
      <g>
       <use xlink:href="#mb90554e9ce" x="118.195928" y="184.32764" style="stroke: #000000; stroke-width: 0.8"/>
      </g>
     </g>
     <g id="text_1">
      <text style="font-size: 8.5px; font-family: 'DejaVu Serif', serif; text-anchor: middle" x="118.195928" y="197.786312" transform="rotate(-0 118.195928 197.786312)">First-order</text>
     </g>
    </g>
    <g id="xtick_2">
     <g id="line2d_2">
      <g>
       <use xlink:href="#mb90554e9ce" x="264.656359" y="184.32764" style="stroke: #000000; stroke-width: 0.8"/>
      </g>
     </g>
     <g id="text_2">
      <text style="font-size: 8.5px; font-family: 'DejaVu Serif', serif; text-anchor: middle" x="264.656359" y="197.786312" transform="rotate(-0 264.656359 197.786312)">Second-order</text>
     </g>
    </g>
    <g id="xtick_3">
     <g id="line2d_3">
      <g>
       <use xlink:href="#mb90554e9ce" x="411.116791" y="184.32764" style="stroke: #000000; stroke-width: 0.8"/>
      </g>
     </g>
     <g id="text_3">
      <text style="font-size: 8.5px; font-family: 'DejaVu Serif', serif; text-anchor: middle" x="411.116791" y="197.786312" transform="rotate(-0 411.116791 197.786312)">Third-order</text>
     </g>
    </g>
   </g>
   <g id="matplotlib.axis_2">
    <g id="ytick_1">
     <g id="line2d_4">
      <path d="M 40.718359 184.32764
L 488.594359 184.32764
" clip-path="url(#p7c13dbd34c)" style="fill: none; stroke: #d7d7d7; stroke-opacity: 0.75; stroke-width: 0.6; stroke-linecap: square"/>
     </g>
     <g id="line2d_5">
      <defs>
       <path id="mae3e837d15" d="M 0 0
L -3.5 0
" style="stroke: #000000; stroke-width: 0.8"/>
      </defs>
      <g>
       <use xlink:href="#mae3e837d15" x="40.718359" y="184.32764" style="stroke: #000000; stroke-width: 0.8"/>
      </g>
     </g>
     <g id="text_4">
      <text style="font-size: 8.5px; font-family: 'DejaVu Serif', serif; text-anchor: end" x="33.718359" y="187.556644" transform="rotate(-0 33.718359 187.556644)">0.0</text>
     </g>
    </g>
    <g id="ytick_2">
     <g id="line2d_6">
      <path d="M 40.718359 160.919619
L 488.594359 160.919619
" clip-path="url(#p7c13dbd34c)" style="fill: none; stroke: #d7d7d7; stroke-opacity: 0.75; stroke-width: 0.6; stroke-linecap: square"/>
     </g>
     <g id="line2d_7">
      <g>
       <use xlink:href="#mae3e837d15" x="40.718359" y="160.919619" style="stroke: #000000; stroke-width: 0.8"/>
      </g>
     </g>
     <g id="text_5">
      <text style="font-size: 8.5px; font-family: 'DejaVu Serif', serif; text-anchor: end" x="33.718359" y="164.148623" transform="rotate(-0 33.718359 164.148623)">0.2</text>
     </g>
    </g>
    <g id="ytick_3">
     <g id="line2d_8">
      <path d="M 40.718359 137.511597
L 488.594359 137.511597
" clip-path="url(#p7c13dbd34c)" style="fill: none; stroke: #d7d7d7; stroke-opacity: 0.75; stroke-width: 0.6; stroke-linecap: square"/>
     </g>
     <g id="line2d_9">
      <g>
       <use xlink:href="#mae3e837d15" x="40.718359" y="137.511597" style="stroke: #000000; stroke-width: 0.8"/>
      </g>
     </g>
     <g id="text_6">
      <text style="font-size: 8.5px; font-family: 'DejaVu Serif', serif; text-anchor: end" x="33.718359" y="140.740601" transform="rotate(-0 33.718359 140.740601)">0.4</text>
     </g>
    </g>
    <g id="ytick_4">
     <g id="line2d_10">
      <path d="M 40.718359 114.103576
L 488.594359 114.103576
" clip-path="url(#p7c13dbd34c)" style="fill: none; stroke: #d7d7d7; stroke-opacity: 0.75; stroke-width: 0.6; stroke-linecap: square"/>
     </g>
     <g id="line2d_11">
      <g>
       <use xlink:href="#mae3e837d15" x="40.718359" y="114.103576" style="stroke: #000000; stroke-width: 0.8"/>
      </g>
     </g>
     <g id="text_7">
      <text style="font-size: 8.5px; font-family: 'DejaVu Serif', serif; text-anchor: end" x="33.718359" y="117.33258" transform="rotate(-0 33.718359 117.33258)">0.6</text>
     </g>
    </g>
    <g id="ytick_5">
     <g id="line2d_12">
      <path d="M 40.718359 90.695555
L 488.594359 90.695555
" clip-path="url(#p7c13dbd34c)" style="fill: none; stroke: #d7d7d7; stroke-opacity: 0.75; stroke-width: 0.6; stroke-linecap: square"/>
     </g>
     <g id="line2d_13">
      <g>
       <use xlink:href="#mae3e837d15" x="40.718359" y="90.695555" style="stroke: #000000; stroke-width: 0.8"/>
      </g>
     </g>
     <g id="text_8">
      <text style="font-size: 8.5px; font-family: 'DejaVu Serif', serif; text-anchor: end" x="33.718359" y="93.924559" transform="rotate(-0 33.718359 93.924559)">0.8</text>
     </g>
    </g>
    <g id="ytick_6">
     <g id="line2d_14">
      <path d="M 40.718359 67.287534
L 488.594359 67.287534
" clip-path="url(#p7c13dbd34c)" style="fill: none; stroke: #d7d7d7; stroke-opacity: 0.75; stroke-width: 0.6; stroke-linecap: square"/>
     </g>
     <g id="line2d_15">
      <g>
       <use xlink:href="#mae3e837d15" x="40.718359" y="67.287534" style="stroke: #000000; stroke-width: 0.8"/>
      </g>
     </g>
     <g id="text_9">
      <text style="font-size: 8.5px; font-family: 'DejaVu Serif', serif; text-anchor: end" x="33.718359" y="70.516538" transform="rotate(-0 33.718359 70.516538)">1.0</text>
     </g>
    </g>
    <g id="ytick_7">
     <g id="line2d_16">
      <path d="M 40.718359 43.879512
L 488.594359 43.879512
" clip-path="url(#p7c13dbd34c)" style="fill: none; stroke: #d7d7d7; stroke-opacity: 0.75; stroke-width: 0.6; stroke-linecap: square"/>
     </g>
     <g id="line2d_17">
      <g>
       <use xlink:href="#mae3e837d15" x="40.718359" y="43.879512" style="stroke: #000000; stroke-width: 0.8"/>
      </g>
     </g>
     <g id="text_10">
      <text style="font-size: 8.5px; font-family: 'DejaVu Serif', serif; text-anchor: end" x="33.718359" y="47.108516" transform="rotate(-0 33.718359 47.108516)">1.2</text>
     </g>
    </g>
    <g id="text_11">
     <text style="font-size: 9px; font-family: 'DejaVu Serif', serif; text-anchor: middle" x="14.038594" y="108.34964" transform="rotate(-90 14.038594 108.34964)">Teacher–student interaction MAE ↓</text>
    </g>
   </g>
   <g id="patch_3">
    <path d="M 61.076359 184.32764
L 80.116215 184.32764
L 80.116215 60.47692
L 61.076359 60.47692
z
" clip-path="url(#p7c13dbd34c)" style="fill: #4c78a8"/>
   </g>
   <g id="patch_4">
    <path d="M 207.536791 184.32764
L 226.576647 184.32764
L 226.576647 39.60764
L 207.536791 39.60764
z
" clip-path="url(#p7c13dbd34c)" style="fill: #4c78a8"/>
   </g>
   <g id="patch_5">
    <path d="M 353.997223 184.32764
L 373.037079 184.32764
L 373.037079 52.916542
L 353.997223 52.916542
z
" clip-path="url(#p7c13dbd34c)" style="fill: #4c78a8"/>
   </g>
   <g id="patch_6">
    <path d="M 80.116215 184.32764
L 99.156072 184.32764
L 99.156072 106.125603
L 80.116215 106.125603
z
" clip-path="url(#p7c13dbd34c)" style="fill: #54a24b"/>
   </g>
   <g id="patch_7">
    <path d="M 226.576647 184.32764
L 245.616503 184.32764
L 245.616503 111.778045
L 226.576647 111.778045
z
" clip-path="url(#p7c13dbd34c)" style="fill: #54a24b"/>
   </g>
   <g id="patch_8">
    <path d="M 373.037079 184.32764
L 392.076935 184.32764
L 392.076935 133.79085
L 373.037079 133.79085
z
" clip-path="url(#p7c13dbd34c)" style="fill: #54a24b"/>
   </g>
   <g id="patch_9">
    <path d="M 99.156072 184.32764
L 118.195928 184.32764
L 118.195928 108.19959
L 99.156072 108.19959
z
" clip-path="url(#p7c13dbd34c)" style="fill: #f58518"/>
   </g>
   <g id="patch_10">
    <path d="M 245.616503 184.32764
L 264.656359 184.32764
L 264.656359 114.942731
L 245.616503 114.942731
z
" clip-path="url(#p7c13dbd34c)" style="fill: #f58518"/>
   </g>
   <g id="patch_11">
    <path d="M 392.076935 184.32764
L 411.116791 184.32764
L 411.116791 130.695735
L 392.076935 130.695735
z
" clip-path="url(#p7c13dbd34c)" style="fill: #f58518"/>
   </g>
   <g id="patch_12">
    <path d="M 118.195928 184.32764
L 137.235784 184.32764
L 137.235784 108.141345
L 118.195928 108.141345
z
" clip-path="url(#p7c13dbd34c)" style="fill: #b279a2"/>
   </g>
   <g id="patch_13">
    <path d="M 264.656359 184.32764
L 283.696215 184.32764
L 283.696215 134.472192
L 264.656359 134.472192
z
" clip-path="url(#p7c13dbd34c)" style="fill: #b279a2"/>
   </g>
   <g id="patch_14">
    <path d="M 411.116791 184.32764
L 430.156647 184.32764
L 430.156647 85.218469
L 411.116791 85.218469
z
" clip-path="url(#p7c13dbd34c)" style="fill: #b279a2"/>
   </g>
   <g id="patch_15">
    <path d="M 137.235784 184.32764
L 156.27564 184.32764
L 156.27564 110.946381
L 137.235784 110.946381
z
" clip-path="url(#p7c13dbd34c)" style="fill: #e45756"/>
   </g>
   <g id="patch_16">
    <path d="M 283.696215 184.32764
L 302.736072 184.32764
L 302.736072 130.473024
L 283.696215 130.473024
z
" clip-path="url(#p7c13dbd34c)" style="fill: #e45756"/>
   </g>
   <g id="patch_17">
    <path d="M 430.156647 184.32764
L 449.196503 184.32764
L 449.196503 124.901611
L 430.156647 124.901611
z
" clip-path="url(#p7c13dbd34c)" style="fill: #e45756"/>
   </g>
   <g id="patch_18">
    <path d="M 156.27564 184.32764
L 175.315496 184.32764
L 175.315496 110.034605
L 156.27564 110.034605
z
" clip-path="url(#p7c13dbd34c)" style="fill: #72b7b2"/>
   </g>
   <g id="patch_19">
    <path d="M 302.736072 184.32764
L 321.775928 184.32764
L 321.775928 116.666315
L 302.736072 116.666315
z
" clip-path="url(#p7c13dbd34c)" style="fill: #72b7b2"/>
   </g>
   <g id="patch_20">
    <path d="M 449.196503 184.32764
L 468.236359 184.32764
L 468.236359 132.89323
L 449.196503 132.89323
z
" clip-path="url(#p7c13dbd34c)" style="fill: #72b7b2"/>
   </g>
   <g id="patch_21">
    <path d="M 40.718359 184.32764
L 40.718359 32.37164
" style="fill: none; stroke: #000000; stroke-width: 0.7; stroke-linejoin: miter; stroke-linecap: square"/>
   </g>
   <g id="patch_22">
    <path d="M 40.718359 184.32764
L 488.594359 184.32764
" style="fill: none; stroke: #000000; stroke-width: 0.7; stroke-linejoin: miter; stroke-linecap: square"/>
   </g>
   <g id="legend_1">
    <g id="patch_23">
     <path d="M 138.945391 15.782844
L 153.745391 15.782844
L 153.745391 10.602844
L 138.945391 10.602844
z
" style="fill: #4c78a8"/>
    </g>
    <g id="text_12">
     <text style="font-size: 7.4px; font-family: 'DejaVu Serif', serif; text-anchor: start" x="159.665391" y="15.782844" transform="rotate(-0 159.665391 15.782844)">Full KD</text>
    </g>
    <g id="patch_24">
     <path d="M 138.945391 26.883422
L 153.745391 26.883422
L 153.745391 21.703422
L 138.945391 21.703422
z
" style="fill: #54a24b"/>
    </g>
    <g id="text_13">
     <text style="font-size: 7.4px; font-family: 'DejaVu Serif', serif; text-anchor: start" x="159.665391" y="26.883422" transform="rotate(-0 159.665391 26.883422)">Subset-7</text>
    </g>
    <g id="patch_25">
     <path d="M 207.397703 15.782844
L 222.197703 15.782844
L 222.197703 10.602844
L 207.397703 10.602844
z
" style="fill: #f58518"/>
    </g>
    <g id="text_14">
     <text style="font-size: 7.4px; font-family: 'DejaVu Serif', serif; text-anchor: start" x="228.117703" y="15.782844" transform="rotate(-0 228.117703 15.782844)">First-order</text>
    </g>
    <g id="patch_26">
     <path d="M 207.397703 26.883422
L 222.197703 26.883422
L 222.197703 21.703422
L 207.397703 21.703422
z
" style="fill: #b279a2"/>
    </g>
    <g id="text_15">
     <text style="font-size: 7.4px; font-family: 'DejaVu Serif', serif; text-anchor: start" x="228.117703" y="26.883422" transform="rotate(-0 228.117703 26.883422)">First+Second</text>
    </g>
    <g id="patch_27">
     <path d="M 294.479516 15.782844
L 309.279516 15.782844
L 309.279516 10.602844
L 294.479516 10.602844
z
" style="fill: #e45756"/>
    </g>
    <g id="text_16">
     <text style="font-size: 7.4px; font-family: 'DejaVu Serif', serif; text-anchor: start" x="315.199516" y="15.782844" transform="rotate(-0 315.199516 15.782844)">Uniform Interaction</text>
    </g>
    <g id="patch_28">
     <path d="M 294.479516 26.883422
L 309.279516 26.883422
L 309.279516 21.703422
L 294.479516 21.703422
z
" style="fill: #72b7b2"/>
    </g>
    <g id="text_17">
     <text style="font-size: 7.4px; font-family: 'DejaVu Serif', serif; text-anchor: start" x="315.199516" y="26.883422" transform="rotate(-0 315.199516 26.883422)">Random basis</text>
    </g>
   </g>
  </g>
 </g>
 <defs>
  <clipPath id="p7c13dbd34c">
   <rect x="40.718359" y="32.37164" width="447.876" height="151.956"/>
  </clipPath>
 </defs>
</svg>
